<svg xmlns="http://www.w3.org/2000/svg" viewBox="0 0 345 210.5"><defs><style>.cls-1,.cls-4{fill:#fff;}.cls-2,.cls-3{fill:none;}.cls-2,.cls-3,.cls-4{stroke:#fff;stroke-miterlimit:10;}.cls-2,.cls-4{stroke-width:2px;}</style></defs><title>Artboard 1</title><g id="Layer_4" data-name="Layer 4"><g id="_Group_" data-name="&lt;Group&gt;"><g id="_Group_2" data-name="&lt;Group&gt;"><path id="_Path_" data-name="&lt;Path&gt;" class="cls-1" d="M103.65,9.95c6.7-1.51,13.87-.52,20.68-.42,5.29.08,10.79,1,15.82-1.08,1.76-.73,1-3.63-.8-2.89-5.46,2.26-12.05,1-17.83,1-6.28-.07-12.48-.88-18.67.52-1.88.42-1.09,3.32.8,2.89Z"/></g></g><g id="_Group_3" data-name="&lt;Group&gt;"><g id="_Group_4" data-name="&lt;Group&gt;"><path id="_Path_2" data-name="&lt;Path&gt;" class="cls-1" d="M84.9,14.41c5.16,1.54,11-.17,16.22-.66,3.23-.3,6-2.54,6-6,0-3-2.75-6.31-6-6-2.61.25-5.19.7-7.8.92-1.75.15-3.94.55-5.23.17C80.68.63,77.51,12.21,84.9,14.41Z"/></g></g><g id="_Group_5" data-name="&lt;Group&gt;"><g id="_Group_6" data-name="&lt;Group&gt;"><path id="_Path_3" data-name="&lt;Path&gt;" class="cls-1" d="M85,12.91a15,15,0,0,0,3.13.44l-1.6-.21a3.41,3.41,0,0,1,.84.21L86,12.74l.12.06a6.37,6.37,0,0,0,4.62.6,6.12,6.12,0,0,0,3.59-2.76,6,6,0,0,0-2.15-8.21,8,8,0,0,0-2.4-.88c-.88-.14-1.74-.2-2.62-.32l1.6.21a3.1,3.1,0,0,1-.51-.12,6,6,0,0,0-7.38,4.19,6.07,6.07,0,0,0,.6,4.62A6.59,6.59,0,0,0,85,12.91Z"/></g></g><g id="_Group_7" data-name="&lt;Group&gt;"><g id="_Group_8" data-name="&lt;Group&gt;"><path id="_Path_4" data-name="&lt;Path&gt;" class="cls-1" d="M16,100.2c1.11,7.7.41,15.94.25,23.69-.14,6.41-.92,13.11.5,19.43,1.27,5.65,9.95,3.26,8.68-2.39-1.49-6.61-.19-14.15-.12-20.86.08-7.43.43-14.89-.63-22.27-.83-5.71-9.5-3.28-8.68,2.39Z"/></g></g><g id="_Group_9" data-name="&lt;Group&gt;"><g id="_Group_10" data-name="&lt;Group&gt;"><path id="_Path_5" data-name="&lt;Path&gt;" class="cls-1" d="M171.63,199.75a8.53,8.53,0,0,0-2.34,0c-.24.09-.29,0,.1.14s-.43-.29-.49-.32c-1.65-.88-3.6-.76-5.41-.74a4.5,4.5,0,0,0,0,9,68.14,68.14,0,0,1,7,.13c2.42.24,4.5-2.24,4.5-4.5,0-2.63-2.07-4.26-4.5-4.5a68.14,68.14,0,0,0-7-.12v9a7.89,7.89,0,0,0,1.94,0q.57,0-.25-.15t-.32,0c.06.23,2,.88,1.51.72a17.52,17.52,0,0,0,5.26.34,4.5,4.5,0,0,0,0-9Z"/></g></g><g id="_Group_11" data-name="&lt;Group&gt;"><g id="_Group_12" data-name="&lt;Group&gt;"><path class="cls-1" d="M212.88,208.38c1.9-.07,3.78-.33,5.68-.44a37.51,37.51,0,0,0,7-.72c5.62-1.4,3.24-10.09-2.39-8.68a33,33,0,0,1-5.45.46c-1.62.13-3.23.32-4.86.38-5.78.2-5.8,9.2,0,9Z"/></g></g><g id="_Group_13" data-name="&lt;Group&gt;"><g id="_Group_14" data-name="&lt;Group&gt;"><path class="cls-1" d="M149.65,207.89c.58-.37,4.76-.12,5.76-.14,2.82,0,5.65.33,8.47.38,5.79.1,5.79-8.9,0-9-3.53-.06-7-.49-10.56-.25-2.8.19-5.72-.34-8.21,1.24-4.88,3.09-.37,10.88,4.54,7.77Z"/></g></g><g id="_Group_15" data-name="&lt;Group&gt;"><g id="_Group_16" data-name="&lt;Group&gt;"><path class="cls-1" d="M148.5,199.38a8.13,8.13,0,0,0-1.49.12c-.27,0-.54,0-.81.07h-.38a3.37,3.37,0,0,1,2.32,1l1.16,2-.07-.16-4.34,5.7a18.16,18.16,0,0,0,3.9-.4,4.5,4.5,0,1,0-2.39-8.68c1.67-.35.19-.07-.39-.08s-1.15,0-1.73,0a7.21,7.21,0,0,0-5,1.61c-1.85,1.47-1.65,4.85,0,6.36,2,1.8,4.39,1.57,6.36,0q-2.57,1.19-1.52,1,.33-.07-.29,0c-.85.15-.09,0,.13,0,.48,0,1,0,1.43,0a13.94,13.94,0,0,0,3.35-.22L146.39,199c-1,.32.73.1-.34,0a7.93,7.93,0,0,0-1.16,0,4.62,4.62,0,0,0-3.53,1.77,4.23,4.23,0,0,0-.81,3.92,5.59,5.59,0,0,0,5.27,3.83c.9,0,1.78-.26,2.68-.2a4.52,4.52,0,0,0,4.5-4.5,4.61,4.61,0,0,0-4.5-4.5Z"/></g></g><g id="_Group_17" data-name="&lt;Group&gt;"><g id="_Group_18" data-name="&lt;Group&gt;"><path id="_Path_6" data-name="&lt;Path&gt;" class="cls-1" d="M177,203.88v-.49a4.55,4.55,0,0,0-5.7-4.34l-.43.12c-4.81,1.34-4,9,1.2,8.84,6.5-.2,12.81-.6,19.32-.38,5.79.19,5.79-8.81,0-9-6.5-.21-12.82.18-19.32.38l1.2,8.84.43-.12-5.7-4.34v.49c.13,5.78,9.13,5.8,9,0Z"/></g></g><g id="_Group_19" data-name="&lt;Group&gt;"><g id="_Group_20" data-name="&lt;Group&gt;"><path class="cls-1" d="M199.56,207.06c-1.23,1-1,.59.18.57h2a40.68,40.68,0,0,0,7-.42c2.4-.42,3.74-3.35,3.14-5.54-.69-2.53-3.13-3.57-5.54-3.14-4.59.81-9.11-1-13.11,2.16-1.9,1.52-1.58,4.78,0,6.36,1.88,1.88,4.46,1.52,6.36,0Z"/></g></g><g id="_Group_21" data-name="&lt;Group&gt;"><g id="_Group_22" data-name="&lt;Group&gt;"><path class="cls-1" d="M260.25,209.25c5.79,0,5.8-9,0-9s-5.8,9,0,9Z"/></g></g><g id="_Group_23" data-name="&lt;Group&gt;"><g id="_Group_24" data-name="&lt;Group&gt;"><path class="cls-1" d="M260.25,209.25c9.29-.09,18.58-.87,27.88-1.08,4.12-.09,8.21-.65,12.33-.67,3.75,0,8.6-.46,12.22.46,5.61,1.43,8-7.24,2.39-8.68-7.93-2-17.2-.48-25.26-.16-9.83.39-19.73,1-29.56,1.13-5.79.06-5.8,9.06,0,9Z"/></g></g><g id="_Group_25" data-name="&lt;Group&gt;"><g id="_Group_26" data-name="&lt;Group&gt;"><path id="_Path_7" data-name="&lt;Path&gt;" class="cls-1" d="M301.63,200.38c7.16,0,14.28.62,21.42.84,5.12.16,12.24.32,17.15-1.5,5.39-2,3.06-10.69-2.39-8.68-4.73,1.75-11.57,1.33-16.53,1.08-6.55-.33-13.09-.7-19.65-.74-5.79,0-5.8,9,0,9Z"/></g></g><g id="_Group_27" data-name="&lt;Group&gt;"><g id="_Group_28" data-name="&lt;Group&gt;"><path id="_Path_8" data-name="&lt;Path&gt;" class="cls-1" d="M300.13,208.38c6.79,0,13.58-.28,20.37-.36,6-.08,10.83.06,16.12-3,5.14-3,.63-10.07-4.54-7.77a10,10,0,0,0-3,2.06c-2.89,2.63-.63,7.76,3.18,7.68,3.58-.07,5.84-2.7,7.92-5.32,3.56-4.49-2.76-10.9-6.36-6.36-.46.57-1,1.11-1.41,1.72-.69,1-1.91,1-.15,1l3.18,7.68,1.18-.65-4.54-7.77c-4.6,2.65-10.29,1.71-15.44,1.82-5.5.11-11,.28-16.51.3-5.79,0-5.8,9,0,9Z"/></g></g><g id="_Group_29" data-name="&lt;Group&gt;"><g id="_Group_30" data-name="&lt;Group&gt;"><path id="_Path_9" data-name="&lt;Path&gt;" class="cls-1" d="M323.24,204.15c1.54,2.87,5.62,5,8.83,3.82a4.87,4.87,0,0,0,2.69-2.07,4.59,4.59,0,0,0,.45-3.47c-.69-2.14-3.18-4-5.54-3.14a2.4,2.4,0,0,1-.51.14l1.2-.16a3.29,3.29,0,0,1-.56,0l1.2.16a4.22,4.22,0,0,1-.77-.21l1.07.45c-.19-.08-.37-.18-.55-.28-.62-.33.69.63.33.28a3,3,0,0,1-.36-.35s.73,1.12.29.3a4.54,4.54,0,0,0-6.16-1.61,4.6,4.6,0,0,0-1.61,6.16Z"/></g></g><g id="_Group_31" data-name="&lt;Group&gt;"><g id="_Group_32" data-name="&lt;Group&gt;"><path id="_Path_10" data-name="&lt;Path&gt;" class="cls-1" d="M319.5,124.88c.47,6.12.53,12.23.77,18.36.22,5.67-.5,11.25-.39,16.89s9.11,5.8,9,0c-.11-5.64.61-11.22.39-16.89-.23-6.13-.29-12.24-.77-18.36-.44-5.74-9.45-5.79-9,0Z"/></g></g><g id="_Group_33" data-name="&lt;Group&gt;"><g id="_Group_34" data-name="&lt;Group&gt;"><path id="_Path_11" data-name="&lt;Path&gt;" class="cls-1" d="M319.75,83c0,13.59-.62,27.18-.62,40.75,0,5.79,9,5.8,9,0,0-13.57.6-27.16.63-40.75,0-5.79-9-5.8-9,0Z"/></g></g><g id="_Group_35" data-name="&lt;Group&gt;"><g id="_Group_36" data-name="&lt;Group&gt;"><path id="_Path_12" data-name="&lt;Path&gt;" class="cls-1" d="M320.29,51.43c-1.16,3.67-.63,8.16-.79,12-.23,5.51.49,11.15-.34,16.62-.86,5.67,7.81,8.11,8.68,2.39.78-5.1.56-10.1.58-15.24,0-4-.64-9.63.54-13.39,1.75-5.54-6.94-7.9-8.68-2.39Z"/></g></g><g id="_Group_37" data-name="&lt;Group&gt;"><g id="_Group_38" data-name="&lt;Group&gt;"><path id="_Path_13" data-name="&lt;Path&gt;" class="cls-1" d="M319.5,33.75c.63,6.32.74,12.65.75,19,0,5.79,9,5.8,9,0,0-6.35-.12-12.68-.75-19-.56-5.71-9.57-5.77-9,0Z"/></g></g><g id="_Group_39" data-name="&lt;Group&gt;"><g id="_Group_40" data-name="&lt;Group&gt;"><path id="_Path_14" data-name="&lt;Path&gt;" class="cls-1" d="M276.25,10.5c6.06.08,12.12.21,18.15.86s12.19-.3,18.35-.11c5.79.18,5.79-8.82,0-9-6.16-.19-12.22.76-18.35.11s-12.08-.78-18.15-.86c-5.79-.08-5.8,8.92,0,9Z"/></g></g><g id="_Group_41" data-name="&lt;Group&gt;"><g id="_Group_42" data-name="&lt;Group&gt;"><path id="_Path_15" data-name="&lt;Path&gt;" class="cls-1" d="M258.88,1.5a5.43,5.43,0,0,0-2.64.71c-3.51,1.9-2.51,7.14,1.07,8.22,6.72,2,14.1-.54,20.94-.43,5.79.09,5.8-8.91,0-9s-12.91,2.46-18.55.75L260.77,10l-1.9.52c5.78-.15,5.8-9.15,0-9Z"/></g></g><g id="_Group_43" data-name="&lt;Group&gt;"><g id="_Group_44" data-name="&lt;Group&gt;"><path id="_Path_16" data-name="&lt;Path&gt;" class="cls-1" d="M262.32,14.84c9.73-2,20.13.18,29.88-1.5,5.7-1,3.28-9.65-2.39-8.68-5.12.88-11,.24-16.17.5-4.54.23-9.23.08-13.7,1-5.67,1.17-3.27,9.84,2.39,8.68Z"/></g></g><g id="_Group_45" data-name="&lt;Group&gt;"><g id="_Group_46" data-name="&lt;Group&gt;"><path id="_Path_17" data-name="&lt;Path&gt;" class="cls-1" d="M228,12.25h32.25c5.79,0,5.8-9,0-9H228c-5.79,0-5.8,9,0,9Z"/></g></g><g id="_Group_47" data-name="&lt;Group&gt;"><g id="_Group_48" data-name="&lt;Group&gt;"><path id="_Path_18" data-name="&lt;Path&gt;" class="cls-1" d="M229.68,10.34c4.33,1,9.15.41,13.57.41,5.79,0,5.8-9,0-9-2.11,0-4.23,0-6.34,0a20.7,20.7,0,0,1-4.84-.09c-5.64-1.3-8,7.37-2.39,8.68Z"/></g></g><g id="_Group_49" data-name="&lt;Group&gt;"><g id="_Group_50" data-name="&lt;Group&gt;"><path id="_Path_19" data-name="&lt;Path&gt;" class="cls-1" d="M246.5,10.75h13.25c5.79,0,5.8-9,0-9H246.5c-5.79,0-5.8,9,0,9Z"/></g></g><g id="_Group_51" data-name="&lt;Group&gt;"><g id="_Group_52" data-name="&lt;Group&gt;"><path id="_Path_20" data-name="&lt;Path&gt;" class="cls-1" d="M234.88,14.75c4.43.45,8.91.08,13.35.31s8.58.47,12.84-.35c5.68-1.09,3.28-9.76-2.39-8.68-4,.76-8.38.09-12.38-.08-3.81-.16-7.62.18-11.43-.21-5.76-.59-5.71,8.41,0,9Z"/></g></g><g id="_Group_53" data-name="&lt;Group&gt;"><g id="_Group_54" data-name="&lt;Group&gt;"><path id="_Path_21" data-name="&lt;Path&gt;" class="cls-1" d="M203.88,13a22.4,22.4,0,0,0,5.36-.44c4.09-.84,4-6.19,1.07-8.22l-.68-.47v7.77c1.28-.85,6.8,0,8.34-.07,1.89-.13,3.93-.08,5.79-.36q1.53.74,1.91-.43,1.38,1.79.26.07l3.14-5.54c-2.78,1.14-8.84-.06-11.89-.27-4-.28-8-.05-12-.22-6.79-.29-13.65-1.54-20.33.47-5.53,1.66-3.18,10.35,2.39,8.68,7-2.09,14.53,0,21.62-.16,4.12-.08,8.14.29,12.25.46,3,.12,7.57.89,10.4-.27a4.69,4.69,0,0,0,3.14-5.54c-1-6.34-8.58-6.43-13.34-6.14-3.09.19-6.1.45-9.2.34-2.43-.09-4.86-.19-7,1.22a4.57,4.57,0,0,0,0,7.77l.68.47,1.07-8.22a11.52,11.52,0,0,1-3,.12c-5.79-.17-5.79,8.83,0,9Z"/></g></g><g id="_Group_55" data-name="&lt;Group&gt;"><g id="_Group_56" data-name="&lt;Group&gt;"><path id="_Path_22" data-name="&lt;Path&gt;" class="cls-1" d="M188.32,14.46c2-.49,4.11-.16,6.11-.24,2.48-.1,5-.21,7.44-.22,5.79,0,5.8-9,0-9-2.83,0-5.65.21-8.48.26a31.86,31.86,0,0,0-7.47.52c-5.61,1.42-3.23,10.1,2.39,8.68Z"/></g></g><g id="_Group_57" data-name="&lt;Group&gt;"><g id="_Group_58" data-name="&lt;Group&gt;"><path id="_Path_23" data-name="&lt;Path&gt;" class="cls-1" d="M192.2,10.46c5-.88,10.41.64,15.43.41,5.77-.26,5.8-9.26,0-9S195.72.74,189.8,1.79c-5.69,1-3.28,9.68,2.39,8.68Z"/></g></g><g id="_Group_59" data-name="&lt;Group&gt;"><g id="_Group_60" data-name="&lt;Group&gt;"><path id="_Path_24" data-name="&lt;Path&gt;" class="cls-1" d="M102.8,11.84a28.43,28.43,0,0,0,5,.29c5.83-.18,5.75-8.6,0-9l.05,0-1.07,8.22c2.78-1,7.32,0,10.31-.11,5.27-.24,10.53-.64,15.81-.7,10.22-.11,20.46.1,30.69.1,5.79,0,5.8-9,0-9-10.86,0-21.74-.29-32.59-.08-5.14.1-10.27.55-15.41.74-3.6.13-7.76-.82-11.2.37s-4.66,6.27-1.07,8.22a9.8,9.8,0,0,0,4.49,1.25v-9q-1.32.06-2.65,0c-5.66-.8-8.11,7.87-2.39,8.68Z"/></g></g><g id="_Group_61" data-name="&lt;Group&gt;"><g id="_Group_62" data-name="&lt;Group&gt;"><path id="_Path_25" data-name="&lt;Path&gt;" class="cls-1" d="M103.88,14.5c10.48-.21,21-.85,31.45-.77,9.86.08,19.68.7,29.55.64,5.79,0,5.8-9,0-9-9.87.06-19.68-.56-29.55-.64-10.49-.08-21,.56-31.45.77-5.78.11-5.8,9.11,0,9Z"/></g></g><g id="_Group_63" data-name="&lt;Group&gt;"><g id="_Group_64" data-name="&lt;Group&gt;"><path id="_Path_26" data-name="&lt;Path&gt;" class="cls-1" d="M233,198.75c-.15,5.33,5,7.25,9.46,7.19,2,0,3.29-.93,5.09-1.24,3.15-.53,6.85,0,10.07,0,6.91,0,13.83.1,20.74.08,3.87,0,7.74,0,11.6-.3,2.73-.18,6.62-1.35,9.31-.75,7.52,1.69,10.73-9.88,3.19-11.57-5.29-1.19-11,.35-16.43.54-6.06.21-12.14.07-18.2,0-5.74,0-11.48,0-17.22,0-2.26,0-4.82-.33-7,.53-.84.33-1.47,1.25-.78.66-.4.34-1.27-.22-.85.1l3,5.18v-.46c.22-7.72-11.78-7.72-12,0Z"/></g></g><g id="_Group_65" data-name="&lt;Group&gt;"><g id="_Group_66" data-name="&lt;Group&gt;"><path id="_Path_27" data-name="&lt;Path&gt;" class="cls-1" d="M224.47,203.41c1.52-.39,3.52.08,5.1.08,2.49,0,5-.11,7.49-.12q9.19,0,18.38,0c11.69.06,23.52-.49,35.19.11,7.72.4,7.7-11.61,0-12-12.33-.63-24.83-.07-37.18-.11-6.09,0-12.2-.07-18.29,0-4.43,0-9.57-.65-13.87.46-7.47,1.94-4.3,13.52,3.19,11.57Z"/></g></g><g id="_Group_67" data-name="&lt;Group&gt;"><g id="_Group_68" data-name="&lt;Group&gt;"><path id="_Path_28" data-name="&lt;Path&gt;" class="cls-1" d="M232.38,195.25a6.8,6.8,0,0,0-4.59,1.84,6.5,6.5,0,0,0-1.9,4.45,6.83,6.83,0,0,0,.89,3.46,5.65,5.65,0,0,0,1.61,1.81,4.52,4.52,0,0,0,2,1.07l1.77.24-1.6-.21c2,.27,3.8.63,5.75,0a6.33,6.33,0,0,0,3.59-2.76,6,6,0,0,0-2.15-8.21,6.06,6.06,0,0,0-4.62-.6,3.55,3.55,0,0,1-.52.13l1.6-.21a7,7,0,0,1-1.68-.07l1.6.21-2.13-.29,5.18,3-.06-.13.6,1.43a1.13,1.13,0,0,1-.07-.24l.21,1.6a.53.53,0,0,1,0-.2l-.21,1.6,0-.08-.6,1.43,0-.07-.94,1.21.07-.06-1.21.94.09,0-1.43.6.11,0-1.6.21h.14a6.68,6.68,0,0,0,4.24-1.76,6,6,0,0,0,0-8.49,5.87,5.87,0,0,0-4.24-1.76Z"/></g></g><g id="_Group_69" data-name="&lt;Group&gt;"><g id="_Group_70" data-name="&lt;Group&gt;"><path id="_Path_29" data-name="&lt;Path&gt;" class="cls-1" d="M235.25,208c6.3,0,12.83-1.83,19.09-.75V195.68c-4.6,1.17-9.15-2-13.62.86a6.05,6.05,0,0,0,3,11.18c2.64.11,5.18-.16,7.8-.28,2.17-.1,4,.58,6.19.8,7.68.78,7.62-11.22,0-12-2.12-.22-3.91-1-6.19-.8a66.49,66.49,0,0,1-7.8.28l3,11.18c-1.24.79-.34.15.53.39a23.32,23.32,0,0,0,10.22,0c5.45-1.39,6-10.53,0-11.57-7.56-1.31-14.72.36-22.28.32-7.72,0-7.73,12,0,12Z"/></g></g><g id="_Group_71" data-name="&lt;Group&gt;"><g id="_Group_72" data-name="&lt;Group&gt;"><path id="_Path_30" data-name="&lt;Path&gt;" class="cls-1" d="M220.9,206a20.54,20.54,0,0,1,2,.62c-1.37-.49.62.29.86.4l3-11.18H224.9a6,6,0,1,0,0,12c1.65.06-.93-.21.3,0,.69.13,1.39.22,2.09.31a10.43,10.43,0,0,0,4.55-.16c3-.9,5.21-4.25,4.19-7.38a6.1,6.1,0,0,0-7.38-4.19c-1,.31,1.45-.16.26-.08s1.24.22-.31,0a30.26,30.26,0,0,0-3.7-.48v12h1.88a6.08,6.08,0,0,0,5.79-4.4c.55-2.41-.3-5.66-2.76-6.78a34.23,34.23,0,0,0-5.71-2.23c-3-.76-6.65,1-7.38,4.19A6.1,6.1,0,0,0,220.9,206Z"/></g></g><g id="_Group_73" data-name="&lt;Group&gt;"><g id="_Group_74" data-name="&lt;Group&gt;"><path id="_Path_31" data-name="&lt;Path&gt;" class="cls-1" d="M226.18,201.34a11,11,0,0,0,5-.08,5.92,5.92,0,0,0,4.61-5.64,4.5,4.5,0,0,0-9,0,1.07,1.07,0,0,1,0,.27l.16-1.2q-.17.63.32-.73l.55-.72q1.14-.82.6-.47-.38.19.28-.11c.88-.37-.23,0-.52,0l1.2-.16a7.11,7.11,0,0,1-1.74,0l1.2.16-.2,0a4.81,4.81,0,0,0-3.47.45A4.59,4.59,0,0,0,223,195.8c-.51,2.23.67,5,3.14,5.54Z"/></g></g><g id="_Group_75" data-name="&lt;Group&gt;"><g id="_Group_76" data-name="&lt;Group&gt;"><path id="_Path_32" data-name="&lt;Path&gt;" class="cls-1" d="M189.88,203.25v.13a4.64,4.64,0,0,0,1.32,3.18,4.5,4.5,0,0,0,6.36,0,4.68,4.68,0,0,0,1.32-3.18v-.12a4.64,4.64,0,0,0-1.32-3.18,4.5,4.5,0,0,0-6.36,0,4.68,4.68,0,0,0-1.32,3.18Z"/></g></g><g id="_Group_77" data-name="&lt;Group&gt;"><g id="_Group_78" data-name="&lt;Group&gt;"><path id="_Path_33" data-name="&lt;Path&gt;" class="cls-1" d="M203.35,207.39a10.33,10.33,0,0,0,7.09.83,4.5,4.5,0,1,0-2.39-8.68,4,4,0,0,1-.55.12l1.2-.16a6.19,6.19,0,0,1-1.29,0l1.2.16a7.21,7.21,0,0,1-1.62-.41l1.07.45-.16-.07a4.91,4.91,0,0,0-3.47-.45,4.59,4.59,0,0,0-2.69,2.07,4.54,4.54,0,0,0-.45,3.47,4.35,4.35,0,0,0,2.07,2.69Z"/></g></g><g id="_Group_79" data-name="&lt;Group&gt;"><g id="_Group_80" data-name="&lt;Group&gt;"><path id="_Path_34" data-name="&lt;Path&gt;" class="cls-1" d="M281.25,187.63c4.67,0,9.33.12,14,.13,3.86,0,3.87-6,0-6-4.67,0-9.33-.12-14-.12-3.86,0-3.87,6,0,6Z"/></g></g><g id="_Group_81" data-name="&lt;Group&gt;"><g id="_Group_82" data-name="&lt;Group&gt;"><path id="_Path_35" data-name="&lt;Path&gt;" class="cls-1" d="M265.25,188.25c5.26-.05,10.49-.63,15.75-.5,3.86.09,3.86-5.91,0-6-5.26-.13-10.49.45-15.75.5-3.86,0-3.87,6,0,6Z"/></g></g><g id="_Group_83" data-name="&lt;Group&gt;"><g id="_Group_84" data-name="&lt;Group&gt;"><path id="_Path_36" data-name="&lt;Path&gt;" class="cls-1" d="M245,188.13c6,0,11.92.12,17.88.13,3.86,0,3.87-6,0-6-6,0-11.92-.12-17.87-.12-3.86,0-3.87,6,0,6Z"/></g></g><g id="_Group_85" data-name="&lt;Group&gt;"><g id="_Group_86" data-name="&lt;Group&gt;"><path id="_Path_37" data-name="&lt;Path&gt;" class="cls-1" d="M227.13,188c5.39,0,10.74.27,16.13.38,3.86.08,3.86-5.92,0-6-5.38-.11-10.73-.37-16.12-.37-3.86,0-3.87,6,0,6Z"/></g></g><g id="_Group_87" data-name="&lt;Group&gt;"><g id="_Group_88" data-name="&lt;Group&gt;"><path id="_Path_38" data-name="&lt;Path&gt;" class="cls-1" d="M208.88,187.88c5.59,0,11.16.46,16.75.5,3.86,0,3.87-6,0-6-5.59,0-11.16-.46-16.75-.5-3.86,0-3.87,6,0,6Z"/></g></g><g id="_Group_89" data-name="&lt;Group&gt;"><g id="_Group_90" data-name="&lt;Group&gt;"><path id="_Path_39" data-name="&lt;Path&gt;" class="cls-1" d="M186.5,187.75c3.38.11,6.74.47,10.13.5,3.86,0,3.87-6,0-6-3.38,0-6.75-.39-10.12-.5-3.86-.12-3.86,5.88,0,6Z"/></g></g><g id="_Group_91" data-name="&lt;Group&gt;"><g id="_Group_92" data-name="&lt;Group&gt;"><path id="_Path_40" data-name="&lt;Path&gt;" class="cls-1" d="M198.63,187.63c2.71.18,5.41.25,8.13.25,3.86,0,3.87-6,0-6-2.71,0-5.42-.07-8.12-.25-3.85-.26-3.84,5.74,0,6Z"/></g></g><g id="_Group_93" data-name="&lt;Group&gt;"><g id="_Group_94" data-name="&lt;Group&gt;"><path id="_Path_41" data-name="&lt;Path&gt;" class="cls-1" d="M174.75,187.63c3.34,0,6.67.22,10,.25,3.86,0,3.87-6,0-6-3.33,0-6.66-.23-10-.25-3.86,0-3.87,6,0,6Z"/></g></g><g id="_Group_95" data-name="&lt;Group&gt;"><g id="_Group_96" data-name="&lt;Group&gt;"><path id="_Path_42" data-name="&lt;Path&gt;" class="cls-1" d="M167.63,187.88h6.13c3.86,0,3.87-6,0-6h-6.12c-3.86,0-3.87,6,0,6Z"/></g></g><g id="_Group_97" data-name="&lt;Group&gt;"><g id="_Group_98" data-name="&lt;Group&gt;"><path id="_Path_43" data-name="&lt;Path&gt;" class="cls-1" d="M159.5,188c2.71,0,5.42.12,8.13,0,3.85-.17,3.87-6.18,0-6-2.71.12-5.42,0-8.12,0-3.86,0-3.87,6,0,6Z"/></g></g><g id="_Group_99" data-name="&lt;Group&gt;"><g id="_Group_100" data-name="&lt;Group&gt;"><path id="_Path_44" data-name="&lt;Path&gt;" class="cls-1" d="M144.13,187.75h9.25c3.86,0,3.87-6,0-6h-9.25c-3.86,0-3.87,6,0,6Z"/></g></g><g id="_Group_101" data-name="&lt;Group&gt;"><g id="_Group_102" data-name="&lt;Group&gt;"><path id="_Path_45" data-name="&lt;Path&gt;" class="cls-1" d="M154.25,187.75c1.42-.1,2.83.11,4.25.13a3,3,0,0,0,0-6c-1.42,0-2.83-.23-4.25-.12a3,3,0,0,0,0,6Z"/></g></g><g id="_Group_103" data-name="&lt;Group&gt;"><g id="_Group_104" data-name="&lt;Group&gt;"><path id="_Path_46" data-name="&lt;Path&gt;" class="cls-1" d="M130,188c1.9.1,3.76-.26,5.66-.25s3.56.12,5.34.13c3.86,0,3.87-6,0-6-1.78,0-3.56-.12-5.34-.12s-3.76.35-5.66.25c-3.86-.21-3.85,5.79,0,6Z"/></g></g><g id="_Group_105" data-name="&lt;Group&gt;"><g id="_Group_106" data-name="&lt;Group&gt;"><path id="_Path_47" data-name="&lt;Path&gt;" class="cls-1" d="M120.8,187.39a16,16,0,0,1,3.92.13c1.68.05,3.35,0,5,0,3.86,0,3.87-6,0-6-1.91,0-3.83.11-5.74,0a16,16,0,0,0-4.8.11c-3.76.88-2.17,6.67,1.6,5.79Z"/></g></g><g id="_Group_107" data-name="&lt;Group&gt;"><g id="_Group_108" data-name="&lt;Group&gt;"><path id="_Path_48" data-name="&lt;Path&gt;" class="cls-1" d="M100.8,187.89c5.44-1.23,11.53.35,17.08,0,3.83-.26,3.86-6.26,0-6-6.17.42-12.58-1.14-18.67.23-3.76.85-2.17,6.64,1.6,5.79Z"/></g></g><g id="_Group_109" data-name="&lt;Group&gt;"><g id="_Group_110" data-name="&lt;Group&gt;"><path id="_Path_49" data-name="&lt;Path&gt;" class="cls-1" d="M86.63,188c3.71,0,7.42.23,11.13.25,3.86,0,3.87-6,0-6-3.71,0-7.42-.23-11.12-.25-3.86,0-3.87,6,0,6Z"/></g></g><g id="_Group_111" data-name="&lt;Group&gt;"><g id="_Group_112" data-name="&lt;Group&gt;"><path id="_Path_50" data-name="&lt;Path&gt;" class="cls-1" d="M77.13,188c6.88,0,13.75.46,20.63.5,3.86,0,3.87-6,0-6-6.88,0-13.75-.46-20.62-.5-3.86,0-3.87,6,0,6Z"/></g></g><g id="_Group_113" data-name="&lt;Group&gt;"><g id="_Group_114" data-name="&lt;Group&gt;"><path id="_Path_51" data-name="&lt;Path&gt;" class="cls-1" d="M65.88,187.5h7c3.86,0,3.87-6,0-6h-7c-3.86,0-3.87,6,0,6Z"/></g></g><g id="_Group_115" data-name="&lt;Group&gt;"><g id="_Group_116" data-name="&lt;Group&gt;"><path id="_Path_52" data-name="&lt;Path&gt;" class="cls-1" d="M58,188h4.88a3,3,0,0,0,0-6H58a3,3,0,0,0,0,6Z"/></g></g><g id="_Group_117" data-name="&lt;Group&gt;"><g id="_Group_118" data-name="&lt;Group&gt;"><path id="_Path_53" data-name="&lt;Path&gt;" class="cls-1" d="M50.25,188a24.13,24.13,0,0,0,4-.36,3,3,0,0,0-1.6-5.79l-.4.1q.67-.08.15,0l-.67,0a14.09,14.09,0,0,0-1.54.06,3.27,3.27,0,0,0-2.12.88,3,3,0,0,0-.88,2.12c.07,1.47,1.33,3.19,3,3Z"/></g></g><g id="_Group_119" data-name="&lt;Group&gt;"><g id="_Group_120" data-name="&lt;Group&gt;"><path id="_Path_54" data-name="&lt;Path&gt;" class="cls-1" d="M119.63,204.88c3.64,0,7,1.08,10.6,1.6,2.86.41,5.68.44,8.41,1.39l.8-5.89c-7.78.33-15.77-1.52-23.53-.5-3.75.49-4,5.75,0,6s7.89,1.19,11.84,1.15,3.87-6,0-6-7.92-.91-11.84-1.15v6c7.76-1,15.74.83,23.53.5a3,3,0,0,0,.8-5.89c-3.06-1.07-6-1-9.24-1.53-3.82-.6-7.47-1.71-11.37-1.67s-3.87,6,0,6Z"/></g></g><g id="_Group_121" data-name="&lt;Group&gt;"><g id="_Group_122" data-name="&lt;Group&gt;"><path class="cls-1" d="M110.5,196.25c-5.11.48-10.23.6-15.36.62s-9.76-1.46-14.76-1.62c-3.86-.12-3.86,5.88,0,6,5,.16,9.71,1.64,14.76,1.62s10.25-.14,15.36-.62c3.81-.36,3.85-6.36,0-6Z"/></g></g><g id="_Group_123" data-name="&lt;Group&gt;"><g id="_Group_124" data-name="&lt;Group&gt;"><path class="cls-1" d="M69.13,198.75c6.53,0,13.15.45,19.67-.09,6.24-.52,13.33-2.05,19.54-.77,3.77.78,5.38-5,1.6-5.79-6.26-1.3-13.13-.24-19.42.39-7.09.71-14.26.28-21.38.26-3.86,0-3.87,6,0,6Z"/></g></g><g id="_Group_125" data-name="&lt;Group&gt;"><g id="_Group_126" data-name="&lt;Group&gt;"><path class="cls-1" d="M45.3,198.27c8-1.28,16.58-.76,24.67-.8,8.26,0,16.52.21,24.78.16,3.86,0,3.87-6,0-6-16.78.1-34.41-1.8-51,.86-3.8.61-2.19,6.39,1.6,5.79Z"/></g></g><g id="_Group_127" data-name="&lt;Group&gt;"><g id="_Group_128" data-name="&lt;Group&gt;"><path class="cls-1" d="M49.88,203.13c10.26,0,21.07-.68,31.18,1.39v-5.79c-3.16.8-7.11.36-10.39.63a27.61,27.61,0,0,0-8.32,1.76c-2,.79-3.08,3.31-1.32,5s4.12,1.71,6.5,1.68c3.87,0,7.74-.1,11.62-.05a106.9,106.9,0,0,1,12.5.8c2.25.29,4.68.87,6.72-.46a3,3,0,0,0,0-5.18c-6.29-3.7-15.42-3.41-22.48-3.56-3.86-.08-3.86,5.92,0,6,5.88.12,14.26-.31,19.45,2.74v-5.18c-.95.62-3.87-.48-5-.62a96.89,96.89,0,0,0-10.2-.53c-3.06-.05-6.12,0-9.18,0-.69,0-5.26.55-5.68.15l-1.32,5c6.14-2.41,12.53-.82,18.71-2.4,2.77-.7,2.94-5.18,0-5.79-10.67-2.19-21.94-1.63-32.77-1.61-3.86,0-3.87,6,0,6Z"/></g></g><g id="_Group_129" data-name="&lt;Group&gt;"><g id="_Group_130" data-name="&lt;Group&gt;"><path class="cls-1" d="M41.33,206.52c3.94.55,7.86,1.51,11.84,1.48,4.41,0,8.89.77,13.25.14,3.81-.55,2.19-6.33-1.6-5.79S56.9,202,53.17,202a80.29,80.29,0,0,1-10.25-1.27c-3.78-.52-5.41,5.26-1.6,5.79Z"/></g></g><g id="_Group_131" data-name="&lt;Group&gt;"><g id="_Group_132" data-name="&lt;Group&gt;"><path class="cls-1" d="M8,193.63q1.46,1.13.5-.07a3,3,0,0,0-.72-.83,4.67,4.67,0,0,0-2.3-1.12l-1.6,5.79c6.85,1.2,14.07.07,21,0,7.3-.05,14.47.26,21.77.47,3.86.11,3.86-5.89,0-6-6.68-.18-13.23-.63-19.92-.48s-14.48,1.39-21.23.21c-3.78-.66-5.4,5.12-1.6,5.79-.47-.08.85,1.13,1.28,1.43a4.54,4.54,0,0,0,2.83.81c3.86.09,3.86-5.91,0-6Z"/></g></g><g id="_Group_133" data-name="&lt;Group&gt;"><g id="_Group_134" data-name="&lt;Group&gt;"><path class="cls-1" d="M4.11,198l.06.33.77-2.92-.27.29a3,3,0,0,0-.77,2.92C7.08,207,14.36,208,22.23,208c5.74,0,11.49.1,17.23.2,3.85.07,8.69,1.53,11.72-1.46,2-2,3.26-5.08,1.42-7.63s-4.73-2.2-7.49-2.12c-11.42.35-22.74-.7-34.11-1.12-3.86-.15-3.86,5.85,0,6,6.4.24,12.71,1,19.14,1q5.12,0,10.24.09c.74,0,7,.08,6.55-.45-.82-.94-7.18-.3-8.45-.32-3.83-.07-7.67-.08-11.5-.13-5.54-.06-14.76,1.7-17.3-5L8.91,200a3.64,3.64,0,0,0,1-3.54c-.67-3.8-6.46-2.19-5.79,1.6Z"/></g></g><g id="_Group_135" data-name="&lt;Group&gt;"><g id="_Group_136" data-name="&lt;Group&gt;"><path id="_Path_55" data-name="&lt;Path&gt;" class="cls-1" d="M61.43,5.72c-6.43,1.67-13.05.84-19.6.78a1.5,1.5,0,0,0,0,3c6.84.06,13.7.85,20.4-.89a1.5,1.5,0,0,0-.8-2.89Z"/></g></g><g id="_Group_137" data-name="&lt;Group&gt;"><g id="_Group_138" data-name="&lt;Group&gt;"><path id="_Path_56" data-name="&lt;Path&gt;" class="cls-1" d="M54.93,13.79c1.8-.39,4.2.21,6.06.21,2.56,0,5.13,0,7.69,0,5.16-.08,10.32-.13,15.48-.13,7.72,0,7.73-12,0-12-5.74,0-11.47.1-17.21.16C62,2,56.55,1.17,51.74,2.21c-7.54,1.64-4.35,13.21,3.19,11.57Z"/></g></g><g id="_Group_139" data-name="&lt;Group&gt;"><g id="_Group_140" data-name="&lt;Group&gt;"><path id="_Path_57" data-name="&lt;Path&gt;" class="cls-1" d="M27.4,14.29c3.31.67,6.33-.53,9.62-.59,4.88-.09,9.76.11,14.64.14,7.72,0,7.73-12,0-12-4.4,0-8.8-.22-13.2-.16a41.71,41.71,0,0,0-5.9.38c-.57.09-3.83.29-2,.66-7.54-1.52-10.77,10-3.19,11.57Z"/></g></g><g id="_Group_141" data-name="&lt;Group&gt;"><g id="_Group_142" data-name="&lt;Group&gt;"><path id="_Path_58" data-name="&lt;Path&gt;" class="cls-1" d="M16.49,23.8c-.67,4.32-.26,9.17-.33,13.58-.09,5.76-.47,11.52-.49,17.28s9,5.8,9,0c0-5.15.38-10.29.47-15.43,0-2.31.08-4.61.22-6.92.11-1.92-.47-4.27-.18-6.11.88-5.67-7.79-8.11-8.68-2.39Z"/></g></g><g id="_Group_143" data-name="&lt;Group&gt;"><g id="_Group_144" data-name="&lt;Group&gt;"><path id="_Path_59" data-name="&lt;Path&gt;" class="cls-1" d="M16.5,14.17c-.05,2.08.12,4.21-.51,6.22l8.84,1.2A20.38,20.38,0,0,1,26,14.76c.13-.4.61-2.45.68-2.53.59-.7,2.27-1.07,3.08-1.51C34.87,8,30.34.2,25.23,2.95c-1.57.85-3.32,1.4-4.62,2.7a13.27,13.27,0,0,0-2.74,5.15,29.86,29.86,0,0,0-2,10.78,4.52,4.52,0,0,0,8.84,1.2c.87-2.77.76-5.73.84-8.61.15-5.79-8.85-5.79-9,0Z"/></g></g><g id="_Group_145" data-name="&lt;Group&gt;"><g id="_Group_146" data-name="&lt;Group&gt;"><path id="_Path_60" data-name="&lt;Path&gt;" class="cls-1" d="M23.83,17a4.89,4.89,0,0,0,3.31-1.36,4.93,4.93,0,0,0,1-1.48,5.93,5.93,0,0,0,.4-1.84,4.51,4.51,0,0,0-1.32-3.18,4.5,4.5,0,0,0-6.36,0l-.7.91a4.48,4.48,0,0,0-.61,2.27v.1l1.32-3.18-.06.06L23.93,8h-.1a4.85,4.85,0,0,0-3.18,1.32,4.5,4.5,0,0,0,0,6.36A4.39,4.39,0,0,0,23.83,17Z"/></g></g><g id="_Group_147" data-name="&lt;Group&gt;"><g id="_Group_148" data-name="&lt;Group&gt;"><path id="_Path_61" data-name="&lt;Path&gt;" class="cls-1" d="M319.33,11.3c-.9,2.52.72,4.84,1,7.29.4,4.11,0,8.44,0,12.57,0,5.79,9,5.8,9,0,0-3.8.07-7.61,0-11.41a21.08,21.08,0,0,0-.38-4.35,7.44,7.44,0,0,0-.43-1.34c-.36-.79-.08-1.59-.51-.37,1.95-5.47-6.75-7.82-8.68-2.39Z"/></g></g><g id="_Group_149" data-name="&lt;Group&gt;"><g id="_Group_150" data-name="&lt;Group&gt;"><path id="_Path_62" data-name="&lt;Path&gt;" class="cls-1" d="M315.28,14.1l0,0a4.62,4.62,0,0,0,5.08,2.07,4.77,4.77,0,0,0,3.3-5.75A10.94,10.94,0,0,0,321.9,7.3c-1.79-2.49-3.79-4.36-7-4.64-2.22-.2-4.15,1.86-4.42,3.9a4.49,4.49,0,0,0,3.22,4.94c1.08.29,2.19.49,3.25.84a2.3,2.3,0,0,1,.74.26c-.62-.57-.45-.15,0,.08.75.36-.62-.63,0,0-.19-.2-.74-1.53-.53-.81a4.5,4.5,0,0,0,8.68-2.39c-1.33-4.56-5.71-5.59-9.72-6.65l-1.2,8.84a2.41,2.41,0,0,1-1.22-.29q.59.39-.15-.12c.14.15,1.1,1.3.47.44.53.72,1,1.48,1.44,2.25L315,10.47l-.08.19,3.14-3.14-.08,0,5.08,2.07,0,0a4.5,4.5,0,1,0-7.77,4.54Z"/></g></g><g id="_Group_151" data-name="&lt;Group&gt;"><g id="_Group_152" data-name="&lt;Group&gt;"><path id="_Path_63" data-name="&lt;Path&gt;" class="cls-1" d="M304.33,14.5A91.07,91.07,0,0,1,315,13.83c5.79,0,5.8-9,0-9a91.07,91.07,0,0,0-10.67.67c-2.41.3-4.5,1.86-4.5,4.5,0,2.2,2.07,4.8,4.5,4.5Z"/></g></g><g id="_Group_153" data-name="&lt;Group&gt;"><g id="_Group_154" data-name="&lt;Group&gt;"><path id="_Path_64" data-name="&lt;Path&gt;" class="cls-1" d="M293.5,14.5a56.42,56.42,0,0,1,9-.67c5.79.16,5.79-8.84,0-9a56.42,56.42,0,0,0-9,.67c-2.41.32-4.5,1.84-4.5,4.5,0,2.18,2.07,4.82,4.5,4.5Z"/></g></g><g id="_Group_155" data-name="&lt;Group&gt;"><g id="_Group_156" data-name="&lt;Group&gt;"><path id="_Path_65" data-name="&lt;Path&gt;" class="cls-1" d="M327.83,182.67V182a4.64,4.64,0,0,0-1.32-3.18,4.5,4.5,0,0,0-6.36,0,4.68,4.68,0,0,0-1.32,3.18v.67a4.64,4.64,0,0,0,1.32,3.18,4.5,4.5,0,0,0,6.36,0,4.68,4.68,0,0,0,1.32-3.18Z"/></g></g><g id="_Group_157" data-name="&lt;Group&gt;"><g id="_Group_158" data-name="&lt;Group&gt;"><path id="_Path_66" data-name="&lt;Path&gt;" class="cls-1" d="M326.56,171.7c-.79-2.62-.44-5.39-.39-8.09h-6c.22,2,.87,3.81,1.14,5.78.51,3.65,5.52,2.23,5.89-.8.17-1.39-.33-3.26.22-4.54l-5.48-.72c.37,1.53-.12,3.14-.31,4.67a64.22,64.22,0,0,0-.3,6.53,57.49,57.49,0,0,0,.77,10.85c.58,3.65,5.51,2.22,5.89-.8a49.73,49.73,0,0,0,.14-9c-.16-2.86-4.06-4.22-5.59-1.51a15.26,15.26,0,0,0-1.58,6l5.12-2.12.75,1.8c-.24-3.84-6.24-3.86-6,0a3.43,3.43,0,0,0,1,2.44c2.05,1.95,4.81.37,5.12-2.12a6.56,6.56,0,0,1,.76-2.92l-5.59-1.51a49.73,49.73,0,0,1-.14,9l5.89-.8a61.55,61.55,0,0,1-.53-12.34c.13-3.24,1.16-6.49.38-9.71-.56-2.32-4.44-3.14-5.48-.72-1.13,2.62-.7,4.79-1,7.57l5.89-.8c-.2-1.42-.77-2.76-.93-4.18-.42-3.75-5.92-4-6,0-.06,3.27-.35,6.51.61,9.68,1.11,3.69,6.9,2.12,5.79-1.6Z"/></g></g><g id="_Group_159" data-name="&lt;Group&gt;"><g id="_Group_160" data-name="&lt;Group&gt;"><path class="cls-1" d="M322.44,182.2c-1.11,2.9,2.21,7,5.24,5.16a3,3,0,0,0,1.38-3.39,2.89,2.89,0,0,0-.55-1.05c-.23-.3-.53-.76.09.14l.3.72v-.07a3,3,0,0,0-3.69-2.1,3.08,3.08,0,0,0-2.1,3.69,3.31,3.31,0,0,0,.93,1.56l-.77-1.32v0l1.38-3.39,0,0,1.51-.41H326l2.12.88-.32-.3c.12,0,.44.7.16.12l.3.72a2.32,2.32,0,0,1-.12-.39l.11.8a1.65,1.65,0,0,1,0-.39l-.11.8a.94.94,0,0,1,.07-.24,3,3,0,0,0-.3-2.31,3,3,0,0,0-4.1-1.08,3.43,3.43,0,0,0-1.38,1.79Z"/></g></g><g id="_Group_161" data-name="&lt;Group&gt;"><g id="_Group_162" data-name="&lt;Group&gt;"><path class="cls-1" d="M326.5,179.33v-6.5c0-3.86-6-3.87-6,0v6.5c0,3.86,6,3.87,6,0Z"/></g></g><g id="_Group_163" data-name="&lt;Group&gt;"><g id="_Group_164" data-name="&lt;Group&gt;"><path class="cls-1" d="M327.73,175.3c.09-.39.26-.76.35-1.15a4.85,4.85,0,0,0,0-2.44,3,3,0,1,0-5.79,1.6,1.29,1.29,0,0,1,.07.32l-.11-.8a1.48,1.48,0,0,1,0,.31l.11-.8c-.08.47-.28.91-.39,1.38a3,3,0,1,0,5.79,1.6Z"/></g></g><g id="_Group_165" data-name="&lt;Group&gt;"><g id="_Group_166" data-name="&lt;Group&gt;"><path class="cls-1" d="M322.33,179.33c3.86,0,3.87-6,0-6s-3.87,6,0,6Z"/></g></g><g id="_Group_167" data-name="&lt;Group&gt;"><g id="_Group_168" data-name="&lt;Group&gt;"><path class="cls-1" d="M316.41,185.51a3.25,3.25,0,0,0,2.35,1.57,3.37,3.37,0,0,0,2.26-.49,3,3,0,1,0-3-5.18l-.12.08.72-.3-.12,0,.8-.11h-.1l1.51.41-.09,0,1.08,1.08-.07-.1a3.2,3.2,0,0,0-1.79-1.38,3,3,0,0,0-3.39,4.41Z"/></g></g><g id="_Group_169" data-name="&lt;Group&gt;"><g id="_Group_170" data-name="&lt;Group&gt;"><path class="cls-1" d="M315,187.73c.69-.14-.47,0,.18,0l.88,0c.55,0,1.1,0,1.64,0a3,3,0,0,0,0-6,20.73,20.73,0,0,0-4.3.27,3,3,0,0,0-2.1,3.69,3.07,3.07,0,0,0,3.69,2.1Z"/></g></g><g id="_Group_171" data-name="&lt;Group&gt;"><g id="_Group_172" data-name="&lt;Group&gt;"><path class="cls-1" d="M307,187a4.65,4.65,0,0,0,4.75.94,3,3,0,1,0-1.6-5.79,5.12,5.12,0,0,1-.63.16l.8-.11a2.39,2.39,0,0,1-.59,0l.8.11a1.15,1.15,0,0,1-.27-.08l.72.3q-.39-.22.27.22A3,3,0,0,0,307,187Z"/></g></g><g id="_Group_173" data-name="&lt;Group&gt;"><g id="_Group_174" data-name="&lt;Group&gt;"><path class="cls-1" d="M302.55,186.79a4.63,4.63,0,0,0,3.12,1.21,3,3,0,0,0,0-6l-.29,0,.8.11a2.28,2.28,0,0,1-.41-.11l.72.3q-.41-.22.3.27a3,3,0,0,0-4.24,4.24Z"/></g></g><g id="_Group_175" data-name="&lt;Group&gt;"><g id="_Group_176" data-name="&lt;Group&gt;"><path class="cls-1" d="M300.33,188h.33a3,3,0,0,0,0-6h-.33a3,3,0,0,0,0,6Z"/></g></g><g id="_Group_177" data-name="&lt;Group&gt;"><g id="_Group_178" data-name="&lt;Group&gt;"><path class="cls-1" d="M23.42,168.82c-1.53-2.9-1.23-9-1.4-12.37-.13-2.4-1.12-7.73-.09-9.74L16.45,146c1.21,3,1,6.12,1.41,9.27a3,3,0,0,0,5.89.8c1.36-3.34,1-7,.71-10.51a3,3,0,0,0-6,0,22.21,22.21,0,0,0,.07,4.78c.24,2.82,4,4.27,5.59,1.51a10.89,10.89,0,0,0,1.38-5.64c.07-3.48-4.86-3.94-5.89-.8-1.24,3.76-.67,7.48-.62,11.37.06,4.28-.17,8.58-.17,12.87v6.13c0,1,.64,4.56.09,5.44.88-1.39-1.39.25-1.64.53a4.42,4.42,0,0,0-.94,3h6c.14-6,.72-12.17-.44-18.05-.75-3.78-6.53-2.18-5.79,1.6,1,5.32.36,11.08.23,16.46-.09,3.89,5.72,3.81,6,0l.06-.89-1.49,2.59c2.18-1.13,3.53-1.43,3.94-4.21.47-3.19,0-6.75,0-10,0-4,0-8.06.11-12.1.09-4.26-.88-9.08.46-13.17l-5.89-.8-.57,2.61,5.59,1.51a22.21,22.21,0,0,1-.07-4.78h-6c.24,3,.66,6.07-.49,8.92l5.89.8c-.44-3.66-.22-7.39-1.63-10.86-.88-2.18-4.18-3.24-5.48-.72-2,3.85-1,9.39-.66,13.58.35,4.54,0,10.47,2.15,14.58,1.8,3.42,7,.39,5.18-3Z"/></g></g><g id="_Group_179" data-name="&lt;Group&gt;"><g id="_Group_180" data-name="&lt;Group&gt;"><path class="cls-1" d="M22,181.61l-.45.13c-3.15.91-2.68,6.11.8,5.89s4.74-2.19,4.79-5.58-4.8-3.88-5.89-.8c-1.78,5,3.61,6.59,7.45,6.67,7.05.16,14.19-.5,21.27-.43,3.86,0,3.87-6,0-6-5.32-.05-10.67-.29-16,.11-1.31.1-2.62.26-3.93.29a16.57,16.57,0,0,0-2.24,0l-.83-.07q-1.58-.64.06,1l-5.89-.8,1.21-.42.8,5.89.45-.13c3.7-1.07,2.13-6.86-1.6-5.79Z"/></g></g><g id="_Group_181" data-name="&lt;Group&gt;"><g id="_Group_182" data-name="&lt;Group&gt;"><path class="cls-1" d="M131.51,199q-.45-1.13-.86-2.27a4.6,4.6,0,0,0-5.54-3.14c-4.84,1.33-12.54-.55-16.24,3.78-2.06,2.42-1.55,6.73,2,7.52a7.44,7.44,0,0,0,1.32.26l-2.23-3.89,0,.54,1.32-3.18-.88.9c-2.24,2.3-1.42,6.81,2,7.52l1.58.33,1.2-8.84c-3.51.24-6.87,1.36-10.39,1.31-2.78,0-5.09-.09-7.68,1.14-5.23,2.48-.67,10.25,4.54,7.77,1.21-.57,3.88.2,5.27.11,2.8-.18,5.47-1.14,8.26-1.33,4.77-.33,6.46-7.74,1.2-8.84l-1.58-.33,2,7.52a6.32,6.32,0,0,0,2.21-4.63,4.45,4.45,0,0,0-2.23-3.89,12.83,12.83,0,0,0-3.47-1.17l2,7.52c.59-.7,4-.36,4.91-.37a27.8,27.8,0,0,0,7.36-1.09L122,199.09q.41,1.15.86,2.27c2.09,5.33,10.8,3,8.68-2.39Z"/></g></g><g id="_Group_183" data-name="&lt;Group&gt;"><g id="_Group_184" data-name="&lt;Group&gt;"><path class="cls-1" d="M221,193.67q3.53.86,3.65,3.67v-.2a3.27,3.27,0,0,0,0-.62,6.36,6.36,0,0,0-.76-3c-1.37-2.43-4.28-2.9-6.74-2.18a4.58,4.58,0,0,0-3.3,4.34c0,.12.13,1.28,0,.63q-.36,1.24.4-.65a1.2,1.2,0,0,0-.38.35c-1.14,1-1.1,2.17-1.6,3.37l1.16-2c-.17.2-.36.39-.54.58s-.8.6-.19.19c-.06,0-.72.42-.72.44-.06-.25,1.54-.1,1.5-.12a4.5,4.5,0,1,0-2.39,8.68c2.23.74,4.68-.16,6.5-1.48a12.64,12.64,0,0,0,2.21-1.93,8.37,8.37,0,0,0,1.49-3.24l-1.16,2c.86-1.06,1.77-1.76,2.22-3.17a11,11,0,0,0,.47-3.66l-3.3,4.34q.75-.19.11-.08-2.78.49-4-3.63a4.51,4.51,0,0,0,0,.51,7.49,7.49,0,0,0,.19,2.07,5.08,5.08,0,0,0,5.15,3.77,4.6,4.6,0,0,0,4.5-4.5,4.54,4.54,0,0,0-4.5-4.5Z"/></g></g><g id="_Group_185" data-name="&lt;Group&gt;"><g id="_Group_186" data-name="&lt;Group&gt;"><path class="cls-1" d="M114.67,194.17q-1.09-.35,0,.28l.3,2.31c-.35,1-1.14.48-.34.89a7.36,7.36,0,0,0,1.86,0c1.1,0,2.19-.12,3.29-.12,2.69,0,5.23.4,7.84-.5L124,195l0,.3c.13,4,5.53,3.74,6,0l-.06.29-5.59-1.51v.17l1.49-2.59-.18.1c-3.38,1.86-.36,7,3,5.18l.18-.1a3,3,0,0,0,1.49-2.59v-.17c0-2.83-4.27-4.28-5.59-1.51a8.2,8.2,0,0,0-.76,2.74h6a8.41,8.41,0,0,0-.26-1.9,3,3,0,0,0-3.69-2.1c-4.36,1.5-9.65-.91-14,.81-2,.8-3.53,2.85-2.72,5s3.17,2.85,5.32,3c3.84.36,3.82-5.64,0-6Z"/></g></g><g id="_Group_187" data-name="&lt;Group&gt;"><g id="_Group_188" data-name="&lt;Group&gt;"><path class="cls-1" d="M129,204.12a3.1,3.1,0,0,0,2.73,1.15c2.09-.14,4-2.5,2.59-4.51a6.12,6.12,0,0,1-.4-.62l-3.39,4.41c4.23.68,8.33.17,12.58.12,3.86-.05,3.87-6.05,0-6-3.64,0-7.37.68-11,.1-2.44-.4-4.85,2-3.39,4.41a6.12,6.12,0,0,0,.4.62l2.59-4.51-.37,0,2.12.88-.24-.3c-2.43-3-6.65,1.27-4.24,4.24Z"/></g></g><g id="_Group_189" data-name="&lt;Group&gt;"><g id="_Group_190" data-name="&lt;Group&gt;"><path class="cls-1" d="M217.68,200.76a4.22,4.22,0,0,0,2.14-4.22,13.32,13.32,0,0,0-.37-2.06c-.06-.24-.11-.48-.17-.73-.13-.55,0,.79.05.08a3,3,0,0,0-3-3,3.08,3.08,0,0,0-3,3,8.11,8.11,0,0,0,.4,2.53c0,.16.07.33.11.49.16.62,0-.64,0,0,0,.29-.16.7,0-.13.1-.41,1.29-1.37.76-1.12a3,3,0,0,0-1.08,4.1,3.08,3.08,0,0,0,4.1,1.08Z"/></g></g><path class="cls-1" d="M213.33,193.17V197a1.5,1.5,0,0,0,3,0v-3.83a1.5,1.5,0,0,0-3,0Z"/><path class="cls-1" d="M25.3,93.75l0-2h-9a14.28,14.28,0,0,0,.12,2.63c.53,5.67,8.89,5.89,9,0q.34-17.92-.23-35.84c-.18-5.78-9.18-5.8-9,0q.57,17.92.23,35.84h9a14.28,14.28,0,0,1-.12-2.63c0-5.79-8.94-5.8-9,0l0,2c-.06,5.79,8.94,5.8,9,0Z"/><path class="cls-1" d="M212.37,199.73l.05-.16-.69.9c.27-.21.61-.29.9-.5a4.24,4.24,0,0,0,1-1.14,26.28,26.28,0,0,0,1.7-3.1l-2.59-1.51c-.39.83-.77,1.67-1.21,2.48-.2.38-.41.75-.64,1.11q-.19.31-.41.61-.41.37.07.09c-1.82-.66-2.6,2.24-.8,2.89,3,1.08,4.66-3.7,5.57-5.67.8-1.74-1.77-3.27-2.59-1.51a17.65,17.65,0,0,1-1.7,3.1c-.39.52-1.21.66-1.52,1.63-.59,1.84,2.3,2.63,2.89.8Z"/><path class="cls-1" d="M135.77,201.66a5.41,5.41,0,0,0,.2-2.35c-.3-1-1.14-1.16-2-1.24a7.23,7.23,0,0,1-1.29-.23c-.52-.14-.52-.15-.7-.63a7.92,7.92,0,0,0-1.26-2.19c-1.07-1.37-3.17.38-2.36,1.82a10.21,10.21,0,0,0,1.86,2.38c1.4,1.33,3.53-.79,2.12-2.12a7.36,7.36,0,0,1-1.39-1.77l-2.36,1.82c.77,1,.73,2.29,1.9,3a6.17,6.17,0,0,0,1.75.68,9,9,0,0,0,1.15.19l.38,0q.76.06,0-.05l-.74-1.3a5.23,5.23,0,0,1-.15,1.15c-.32,1.89,2.57,2.7,2.89.8Z"/><path class="cls-1" d="M178,6.37a2.52,2.52,0,0,0-.26.62c-.06.85,1.78.32,1.81.23.23-.55-.85-2.09-1.16-2.53a5.58,5.58,0,0,0-4-2.5c-3.28-.33-6.73-.22-7.95,3.35h2.89a1.61,1.61,0,0,0-.4-1.16,1.5,1.5,0,0,0-2.59-1.51c-.65,1.13-.17,2.27.1,3.47.33,1.54,2.45,1.31,2.89,0,.52-1.53,4.22-1.64,5.59-.91,1.57.84,1.25,2.73,2.32,3.86a1.89,1.89,0,0,0,2.24.43,1.94,1.94,0,0,0,.8-.68c.16-.24.45-1.56.27-1.15.75-1.76-1.83-3.29-2.59-1.51Z"/><path class="cls-1" d="M166.68,13.49c1.27.69,2.22.3,3.07-.79l-2.36-.3c2,2.71,7.37,2.91,9.71.57a11.43,11.43,0,0,0,2.7-4.8c.72-2.33.34-3.27-.87-5.15l-1.3,2.26A72,72,0,0,0,187,4.7l-1.5-1.5c-.06-1-6.31,1.19-6.86,1.46A1.51,1.51,0,0,0,179,7.4c-.11,0,3.27.57,3,.21l-.23-1.82c-.12.22-2.07,1.22-2.46,1.65-1.08,1.21-1.66,2.7-2.93,3.76a1.51,1.51,0,0,0,.66,2.51c1.71.47,3.43,0,5.17.29a1.52,1.52,0,0,0,1.69-2.2c-.24-.53-1.2-2-1.26-2.33-.32-1.9-3.21-1.09-2.89.8.22,1.27,1.05,1.89,1.56,3l1.69-2.2c-1.68-.28-3.56.16-5.17-.29l.66,2.51c1.34-1.12,2-2.69,3.21-3.89.77-.75,2.12-1.16,2.65-2.13a1.55,1.55,0,0,0-.23-1.82c-1-1.12-3.06-.77-4.28-1l.36,2.74A13.29,13.29,0,0,1,185,6.11a5.38,5.38,0,0,0,2.09-.28,2.45,2.45,0,0,0,1.41-2.63c0-.73-.66-1.61-1.5-1.5a72,72,0,0,1-9.41.57,1.51,1.51,0,0,0-1.3,2.26c1.19,1.85.42,5-1.48,6.31-1,.65-4.14,1-4.87,0-.5-.69-1.7-1.14-2.36-.3l.57.32c-1.7-.92-3.21,1.67-1.51,2.59Z"/></g><g id="Layer_3" data-name="Layer 3"><g id="_Group_191" data-name="&lt;Group&gt;"><polyline id="_Path_67" data-name="&lt;Path&gt;" class="cls-2" points="16 191.5 328 191.5 343 191.5"/><path id="_Path_68" data-name="&lt;Path&gt;" class="cls-2" d="M130,191.5l83.58,0"/><line id="_Path_69" data-name="&lt;Path&gt;" class="cls-2" x1="2" y1="191.5" x2="17" y2="191.5"/><path id="_Path_70" data-name="&lt;Path&gt;" class="cls-2" d="M16,190.5v.69"/><path id="_Path_71" data-name="&lt;Path&gt;" class="cls-2" d="M329,191.63V190.5"/><path id="_Path_72" data-name="&lt;Path&gt;" class="cls-2" d="M2,190.5v1c0,14.91,12.75,16.85,13.92,17H329s14,.46,14-17.08v-.92"/><path id="_Path_73" data-name="&lt;Path&gt;" class="cls-3" d="M130.42,190.92v1.71a6,6,0,0,0,6,6H207a6,6,0,0,0,6-6v-1.71"/><line id="_Path_74" data-name="&lt;Path&gt;" class="cls-2" x1="172" y1="191.5" x2="172" y2="198.5"/><path id="_Rectangle_" data-name="&lt;Rectangle&gt;" class="cls-2" d="M29.92,14.25H314.12A5.88,5.88,0,0,1,320,20.13V176.46a5.88,5.88,0,0,1-5.87,5.88H31.21a5.87,5.87,0,0,1-5.87-5.87V18.83a4.58,4.58,0,0,1,4.58-4.58Z"/><ellipse id="_Path_75" data-name="&lt;Path&gt;" class="cls-3" cx="172.67" cy="8.29" rx="3.91" ry="3.61"/><path id="_Path_76" data-name="&lt;Path&gt;" class="cls-2" d="M16.31,188.5l-.06-15.1V16a14.1,14.1,0,0,1,14.1-14.1H314.23A14.1,14.1,0,0,1,328.33,16V188.5"/><line id="_Path_77" data-name="&lt;Path&gt;" class="cls-2" x1="30.35" y1="187.5" x2="314.23" y2="187.5"/></g><g id="_Group_192" data-name="&lt;Group&gt;"><path id="_Compound_Path_" data-name="&lt;Compound Path&gt;" class="cls-1" d="M48.1,88A10,10,0,0,1,50.47,73L98.92,37.71q.94.9,2.9,2.91a37.08,37.08,0,0,1,3.46,4.07,24.21,24.21,0,0,1,2.43,4,8.37,8.37,0,0,1,.84,3.62,6.27,6.27,0,0,1-1.12,3.39,14.13,14.13,0,0,1-3.53,3.43l-37,26.94,15.62,21.46a15.24,15.24,0,0,1-1.88,3.23,14.38,14.38,0,0,1-3.2,3.19Q73.7,116.7,71,116.23a7.17,7.17,0,0,1-4.62-3.09Z"/><path id="_Compound_Path_2" data-name="&lt;Compound Path&gt;" class="cls-1" d="M98.25,77a24.55,24.55,0,0,1,6.36-.13,31.78,31.78,0,0,1,8,1.64,29,29,0,0,1,9.15,4.94q3.67,3,3.7,6.86,0,6.38-.3,14.73t-.79,17.2q-.48,8.85-1,17.44t-.95,15.18a9.54,9.54,0,0,1-4.79,1.1,19.87,19.87,0,0,1-6.57-1.22,20.36,20.36,0,0,1-4.29-2,8.34,8.34,0,0,1-2.5-2.34,6.83,6.83,0,0,1-1.07-2.94,21,21,0,0,1-.13-3.72l.64-8.24-19.83-6.84q-2,3-4.1,6.19T75.65,141a29.73,29.73,0,0,1-3.55-.18,20,20,0,0,1-4.24-1q-5.59-1.93-7.61-4.77a6.52,6.52,0,0,1-.85-6.24,11.75,11.75,0,0,1,1.5-2.92q1-1.38,2.23-3.28,1.79-2.69,4.67-6.6t6.28-8.44q3.4-4.53,7.12-9.25l7-8.92q3.29-4.2,5.94-7.45T98.25,77Zm8.27,18.67q-3.12,4.07-7,9.05t-7.4,10.26l13.59,4.69q.51-6.45.87-12.64t.59-11.14Z"/><path id="_Compound_Path_3" data-name="&lt;Compound Path&gt;" class="cls-1" d="M142.61,104l3.32,22a32.21,32.21,0,0,1-3.85,1.28,42.51,42.51,0,0,1-5.28,1.15,24.19,24.19,0,0,1-4.7.3,7.84,7.84,0,0,1-3.54-.93,6.44,6.44,0,0,1-2.44-2.56,14.12,14.12,0,0,1-1.42-4.71l-8.14-54a5.1,5.1,0,0,1,.76-3.92A9.54,9.54,0,0,1,120.61,60a43.48,43.48,0,0,1,8.75-3.37,92.12,92.12,0,0,1,10.91-2.29q15.82-2.39,24.84,3.05t10.74,16.78A20.31,20.31,0,0,1,174,86.85,26.64,26.64,0,0,1,166.48,96q5,5,9.73,9.32a69,69,0,0,1,7.65,8A10.93,10.93,0,0,1,180.6,120a11.76,11.76,0,0,1-6.5,3.15,14.85,14.85,0,0,1-4.44.08,10.59,10.59,0,0,1-3.45-1.12,13.18,13.18,0,0,1-2.9-2.14,33.56,33.56,0,0,1-2.66-2.88l-12-14ZM151,87.68a10.12,10.12,0,0,0,6.54-3.27q2.18-2.61,1.53-7a8,8,0,0,0-3.8-6.17q-3.15-1.81-9.22-.89a26.66,26.66,0,0,0-2.73.53q-1,.27-2.24.69l2.59,17.19Z"/><path id="_Compound_Path_4" data-name="&lt;Compound Path&gt;" class="cls-1" d="M189.87,121.88l-5.34,21.6a32.21,32.21,0,0,1-4-.29,42.51,42.51,0,0,1-5.31-1,24.19,24.19,0,0,1-4.46-1.52,7.84,7.84,0,0,1-2.91-2.21,6.44,6.44,0,0,1-1.27-3.3,14.12,14.12,0,0,1,.49-4.89l13.11-53a5.1,5.1,0,0,1,2.2-3.34,9.54,9.54,0,0,1,4.06-1.2,43.48,43.48,0,0,1,9.37.23,92.12,92.12,0,0,1,11,2.05q15.53,3.84,21.79,12.31T232,107a20.31,20.31,0,0,1-6.55,11A26.64,26.64,0,0,1,215,123.56q2.69,6.52,5.43,12.33a69,69,0,0,1,4,10.31,10.93,10.93,0,0,1-5.6,5,11.76,11.76,0,0,1-7.21.43,14.85,14.85,0,0,1-4.14-1.62,10.59,10.59,0,0,1-2.76-2.35,13.18,13.18,0,0,1-1.86-3.09,33.56,33.56,0,0,1-1.36-3.68l-5.69-17.53Zm10.79-13.21a10.12,10.12,0,0,0,7.29-.52q3-1.58,4.08-5.86a8,8,0,0,0-1.16-7.15q-2.22-2.88-8.18-4.35a26.66,26.66,0,0,0-2.73-.56q-1-.14-2.33-.22l-4.17,16.88Z"/><path id="_Compound_Path_5" data-name="&lt;Compound Path&gt;" class="cls-1" d="M270.26,154.53a32.29,32.29,0,0,1-3.75,1.41,40.32,40.32,0,0,1-5.06,1.3q-5.24,1-8.19-.29t-4-7l-2.88-15.38q-3.64-3.68-7.9-8.19T230,117.15q-4.19-4.75-7.9-9.43A98.54,98.54,0,0,1,215.87,99a15.79,15.79,0,0,1,3.34-4.52,11.35,11.35,0,0,1,6-2.89,13.25,13.25,0,0,1,7.57.47q3.13,1.3,6.58,5.84l13,17.25.68-.13q.93-3.83,1.59-7t1.25-6.25q.59-3.12,1.26-6.49t1.49-7.77a20.48,20.48,0,0,1,4.26-2.45,22,22,0,0,1,4.68-1.47,11.12,11.12,0,0,1,7.17.84,7.55,7.55,0,0,1,4,5.8,12.28,12.28,0,0,1,.05,3.41,37.72,37.72,0,0,1-1.52,6.36q-1.31,4.32-4,11.77t-7.36,19.54Z"/></g><line id="_Path_78" data-name="&lt;Path&gt;" class="cls-2" x1="17" y1="187.5" x2="329" y2="187.5"/><g id="_Group_193" data-name="&lt;Group&gt;"><rect id="_Rectangle_2" data-name="&lt;Rectangle&gt;" class="cls-4" x="38.52" y="46.07" width="2.98" height="68.96" rx="1.49" ry="1.49" transform="translate(-18.28 12.06) rotate(-13.98)"/><rect id="_Rectangle_3" data-name="&lt;Rectangle&gt;" class="cls-4" x="62.59" y="6.24" width="2.98" height="68.96" rx="1.49" ry="1.49" transform="translate(39.72 112.63) rotate(-103.72)"/></g><g id="_Group_194" data-name="&lt;Group&gt;"><rect id="_Rectangle_4" data-name="&lt;Rectangle&gt;" class="cls-4" x="291.84" y="66.97" width="2.98" height="68.96" rx="1.49" ry="1.49" transform="translate(587.99 3.93) rotate(142.61)"/><rect id="_Rectangle_5" data-name="&lt;Rectangle&gt;" class="cls-4" x="285.57" y="113.09" width="2.98" height="68.96" rx="1.49" ry="1.49" transform="translate(231.47 -170.38) rotate(52.88)"/></g></g></svg>